<svg xmlns="http://www.w3.org/2000/svg" viewBox="0 0 64 64"><rect width="64" height="64" rx="16" fill="#087F60"/><path d="M13 28.3C13.7 19 21.8 12 32 12s18.3 7 19 16.3H13Z" fill="#F6B84B"/><path d="M19 23.7c3.9-3.5 8.2-5.3 13-5.3 4.8 0 9.1 1.8 13 5.3" fill="none" stroke="#FFF4D6" stroke-width="2.6" stroke-linecap="round"/><circle cx="23" cy="18.7" r="1.35" fill="#FFF4D6"/><circle cx="33" cy="16.4" r="1.35" fill="#FFF4D6"/><circle cx="41.5" cy="20.2" r="1.35" fill="#FFF4D6"/><rect x="11" y="29" width="42" height="6.6" rx="3.3" fill="#6B3526"/><path d="M13 36h38l-5 6.3H18L13 36Z" fill="#EA5A3B"/><path d="M14.5 39.5c3.4 0 3.4 3 6.8 3s3.4-3 6.8-3 3.4 3 6.8 3 3.4-3 6.8-3 3.4 3 6.8 3" fill="none" stroke="#A7D34B" stroke-width="3.2" stroke-linecap="round"/><rect x="11" y="44.2" width="42" height="8.8" rx="4.4" fill="#F6B84B"/><path d="M17 48.6h30" stroke="#ECA134" stroke-width="1.5" stroke-linecap="round"/></svg>
